<svg id="Capa_1" data-name="Capa 1" xmlns="http://www.w3.org/2000/svg" viewBox="0 0 248 85"><defs><style>.cls-1{fill:#74727f;}.cls-2{fill:#5f5e6a;}.cls-3{fill:#ffc743;}.cls-4{fill:#eeefeb;}.cls-5{fill:#d6d6d0;}.cls-6{fill:#363540;}.cls-7{fill:#21212b;}.cls-8{fill:#c6c6c1;}.cls-9{fill:#319df5;}.cls-10{fill:#0c88ed;}.cls-11{fill:#56b1fc;}.cls-12{fill:#4b4a55;}.cls-13{fill:#9af4ef;}.cls-14{opacity:0.3;}.cls-15{fill:#fffff4;}.cls-16{fill:#36b294;}.cls-17{opacity:0.4;}.cls-18{fill:#674447;}.cls-19{fill:#43ab5f;}.cls-20{fill:#71be63;}.cls-21{opacity:0.6;}.cls-22{fill:#fff;}.cls-23{fill:#00a07d;}.cls-24{fill:#94d75b;}.cls-25{fill:#b0eb81;}.cls-26{fill:#3eb7ff;}.cls-27{fill:#d9eafc;}.cls-28{fill:#69cdff;}.cls-29{fill:#37c47a;}.cls-30{fill:#02af8e;}.cls-31{fill:#0f9390;}.cls-32{fill:#fe3745;}.cls-33{fill:#b7092b;}.cls-34{fill:#5dc1d8;}.cls-35{fill:#28a5a5;}</style></defs><title>prueba</title><path class="cls-1" d="M47.54,75.33a29.18,29.18,0,0,0,47.3,4.53l-.5-4.53Z" transform="translate(-41 -12)"/><path class="cls-2" d="M47.54,75.33A29.17,29.17,0,0,0,72.81,89.91a30.18,30.18,0,0,0,3.58-.22c-8-1.72-7.11-14.36,1.82-14.36Z" transform="translate(-41 -12)"/><path class="cls-3" d="M43.62,60.72a29.07,29.07,0,0,0,3.92,14.61h46.8L90.12,37.21a29.2,29.2,0,0,0-46.5,23.51Z" transform="translate(-41 -12)"/><path class="cls-4" d="M90,37.12H79.28A1.08,1.08,0,0,0,78.2,38.2V64.34h23.58a31,31,0,0,0,.22-3.62A29.15,29.15,0,0,0,90,37.12Z" transform="translate(-41 -12)"/><path class="cls-5" d="M91.52,64.34h10.26a31,31,0,0,0,.22-3.62,29,29,0,0,0-8.35-20.43V62.2A2.14,2.14,0,0,1,91.52,64.34Z" transform="translate(-41 -12)"/><path class="cls-6" d="M78.2,64.05V76.21H90.78l2.37-9.48a3.64,3.64,0,0,1,3.58-2.68Z" transform="translate(-41 -12)"/><path class="cls-7" d="M78.2,64.05V76.21h7a1.35,1.35,0,0,1-1.36-1.35V65.41a1.36,1.36,0,0,1,1.36-1.36Z" transform="translate(-41 -12)"/><path class="cls-7" d="M78.2,70.13v6.36H90.78l1.52-6.36Z" transform="translate(-41 -12)"/><path d="M83.84,74.86V70.13H78.2v6.08h7a1.35,1.35,0,0,1-1.36-1.35Z" transform="translate(-41 -12)"/><path d="M63.12,70.54H49.22V67.39h13.9Z" transform="translate(-41 -12)"/><path class="cls-7" d="M47.63,75.85a8.47,8.47,0,1,1,8.47,8.47A8.48,8.48,0,0,1,47.63,75.85Zm3.69,0a4.78,4.78,0,1,0,4.78-4.77A4.78,4.78,0,0,0,51.32,75.85Z" transform="translate(-41 -12)"/><path class="cls-7" d="M47.63,75.85a8.47,8.47,0,1,1,8.47,8.47A8.48,8.48,0,0,1,47.63,75.85Zm3.69,0a4.78,4.78,0,1,0,4.78-4.77A4.78,4.78,0,0,0,51.32,75.85Z" transform="translate(-41 -12)"/><path d="M56.1,84.32a8.46,8.46,0,0,0,2.76-16.46,1.63,1.63,0,0,1-.54,2.26.56.56,0,0,0-.23.61,1.28,1.28,0,0,1,0,.77,4.77,4.77,0,1,1-4.12,8.61,1.22,1.22,0,0,1-.57.55.56.56,0,0,0-.32.53c0,.56-.18,1.51-1.73,1.64A8.39,8.39,0,0,0,56.1,84.32Z" transform="translate(-41 -12)"/><circle class="cls-5" cx="15.08" cy="63.86" r="4.78"/><path class="cls-8" d="M53.94,80.11a4.77,4.77,0,1,0,4.12-8.61,1.17,1.17,0,0,1-.56.62.58.58,0,0,0-.27.59,5.44,5.44,0,0,1-2.85,6,.59.59,0,0,0-.3.55,1.57,1.57,0,0,1-.14.82Z" transform="translate(-41 -12)"/><path class="cls-4" d="M50.26,75.85a5.84,5.84,0,1,1,5.84,5.84A5.84,5.84,0,0,1,50.26,75.85Zm2.12,0a3.72,3.72,0,1,0,3.72-3.71A3.72,3.72,0,0,0,52.38,75.85Z" transform="translate(-41 -12)"/><path class="cls-5" d="M53.13,80.88a5.83,5.83,0,1,0,5-10.5.59.59,0,0,0,0,.35,1.17,1.17,0,0,1-.59,1.39.6.6,0,0,0-.21.21,3.72,3.72,0,0,1-1.19,7.24,3.68,3.68,0,0,1-2-.56.66.66,0,0,0-.05.28,1.33,1.33,0,0,1-.7,1.37.54.54,0,0,0-.25.22Z" transform="translate(-41 -12)"/><path class="cls-9" d="M42.37,60.44A3.67,3.67,0,0,0,41,63.3v8l1.51,2.58a1.89,1.89,0,0,1,1.59-.86h1.43l1.53-5.91a3.54,3.54,0,0,1,3.47-2.67H61.67a3.53,3.53,0,0,1,3.46,2.67l2.29,9.49H78.48V48A1.44,1.44,0,0,0,77,46.57H67.91a3.67,3.67,0,0,0-2.73,1.23l-6.82,9A3.64,3.64,0,0,1,55.63,58h-9a3.71,3.71,0,0,0-2.32.82l-2,1.6Z" transform="translate(-41 -12)"/><path class="cls-10" d="M71.31,50.27V76.64h7.18V48A1.44,1.44,0,0,0,77,46.57H71.3A2.83,2.83,0,0,1,71.31,50.27Z" transform="translate(-41 -12)"/><path class="cls-2" d="M42.2,75a1.9,1.9,0,0,1,1.9-1.9h2.51a1.91,1.91,0,0,1,0,3.81H44.1A1.91,1.91,0,0,1,42.2,75Z" transform="translate(-41 -12)"/><path class="cls-4" d="M41,64.85h2.29a1.31,1.31,0,0,0,1.18-.73l.44-.9a1.32,1.32,0,0,0-1.18-1.89H41.57a3.68,3.68,0,0,0-.57,2v1.55Z" transform="translate(-41 -12)"/><path class="cls-5" d="M41.06,64.85h2.23a1.31,1.31,0,0,0,1.18-.73l.44-.9a1.32,1.32,0,0,0-1.18-1.89H41.57a1.31,1.31,0,0,1,1.11,1.88l-.44.9A1.31,1.31,0,0,1,41.06,64.85Z" transform="translate(-41 -12)"/><path class="cls-11" d="M72.35,62.67a1.06,1.06,0,0,1,0-2.11h1.74a1.06,1.06,0,1,1,0,2.11Z" transform="translate(-41 -12)"/><path class="cls-6" d="M66.54,50.67,61.76,57A.65.65,0,0,0,62.28,58H73.54a1,1,0,0,0,1-1V51.27a1,1,0,0,0-1-1H67.32A1,1,0,0,0,66.54,50.67Z" transform="translate(-41 -12)"/><path class="cls-7" d="M71.3,58h2.24a1,1,0,0,0,1-1V51.27a1,1,0,0,0-1-1H71.3Z" transform="translate(-41 -12)"/><path class="cls-7" d="M64.1,53.89,61.76,57A.65.65,0,0,0,62.28,58h4.93C63.48,56.93,64.1,53.89,64.1,53.89Z" transform="translate(-41 -12)"/><path class="cls-4" d="M59.37,55.44a2.23,2.23,0,0,0-2.21,2.22v.72a2.23,2.23,0,0,0,2.21,2.22h2a1,1,0,0,0,1-1v-3.2a1,1,0,0,0-1-1Z" transform="translate(-41 -12)"/><path class="cls-5" d="M60.52,58.38a2.22,2.22,0,0,1-1.68,2.15,2.33,2.33,0,0,0,.53.07h2a1,1,0,0,0,1-1v-3.2a1,1,0,0,0-1-1h-2a2.33,2.33,0,0,0-.53.07,2.22,2.22,0,0,1,1.68,2.15v.72Z" transform="translate(-41 -12)"/><path class="cls-2" d="M101.23,67.39H95.09v3.15h5.17l.13-.24a28.55,28.55,0,0,0,.84-2.91Z" transform="translate(-41 -12)"/><path d="M93.66,75.85A8.36,8.36,0,0,0,94.74,80c.65-.74,1.26-1.51,1.84-2.32l.77-1.49c0-.11,0-.21,0-.32a4.76,4.76,0,0,1,2.28-4.06l.77-1.5c.32-.93.6-1.88.83-2.85A8.46,8.46,0,0,0,93.66,75.85Z" transform="translate(-41 -12)"/><path class="cls-4" d="M100.4,70.28a5.86,5.86,0,0,0-4.12,5.57,6,6,0,0,0,.29,1.82,29.29,29.29,0,0,0,3.83-7.39Z" transform="translate(-41 -12)"/><path class="cls-12" d="M90,77.67a1.91,1.91,0,0,0,1.4,2.3,2.3,2.3,0,0,0,.45,0,1.91,1.91,0,0,0,1.85-1.46l2.58-10.7h4.82a29.75,29.75,0,0,0,.69-3.81H96.12a3.53,3.53,0,0,0-3.46,2.68Z" transform="translate(-41 -12)"/><path class="cls-12" d="M64.44,78.12a1.91,1.91,0,0,1,1.9-1.91H91.87a1.91,1.91,0,0,1,0,3.81H66.34A1.9,1.9,0,0,1,64.44,78.12Z" transform="translate(-41 -12)"/><path class="cls-6" d="M64.44,78.12a1.9,1.9,0,0,0,1.9,1.9h5.29a1.91,1.91,0,1,1,0-3.81H66.34A1.91,1.91,0,0,0,64.44,78.12Z" transform="translate(-41 -12)"/><path class="cls-12" d="M66.34,80a1.91,1.91,0,0,1-1.85-1.46l-2.58-10.7H50.28l-1.82,7.55a1.9,1.9,0,0,1-3.7-.89l1.88-7.79a3.52,3.52,0,0,1,3.46-2.68h12a3.52,3.52,0,0,1,3.46,2.68l2.64,10.94a1.91,1.91,0,0,1-1.4,2.3,2.3,2.3,0,0,1-.45,0Z" transform="translate(-41 -12)"/><path class="cls-6" d="M61.91,67.86l2.58,10.7A1.91,1.91,0,0,0,66.34,80a2.3,2.3,0,0,0,.45,0,1.91,1.91,0,0,0,1.4-2.3L65.55,66.73a3.52,3.52,0,0,0-3.46-2.68S64.36,66.16,61.91,67.86Z" transform="translate(-41 -12)"/><path class="cls-6" d="M93.91,64.8a2.48,2.48,0,0,1,2.39,3.06h4.82a29.75,29.75,0,0,0,.69-3.81H96.12a3.62,3.62,0,0,0-2.21.75Z" transform="translate(-41 -12)"/><circle class="cls-13" cx="121.5" cy="32.5" r="32.5"/><g class="cls-14"><path class="cls-15" d="M181.72,18.29a33.68,33.68,0,0,0-13.2,58.14,32.5,32.5,0,0,0,13.2-58.14Z" transform="translate(-41 -12)"/></g><path class="cls-16" d="M157.29,39.17c-1.42-1.18-3.49-.13-4.6-1.08-1.48-1.27-1.82-1.61-3.17-2s-2.36.4-3.56-1.19c-.85-1.15-1.66-1-2.7-.78s-1.35,0-2.74-1.18c-.92-.76-1.76-1-3.66-1a10.16,10.16,0,0,1-4.05-.75,32.16,32.16,0,0,0-2.4,8c4.6.49,6,.28,7.78.85,2,.64,21.09,4.51,21.43,4.32s.57-3.21.57-3.21C158.26,40.94,158.24,40,157.29,39.17Z" transform="translate(-41 -12)"/><g class="cls-17"><path class="cls-15" d="M175.53,50.85a14.9,14.9,0,0,0,11.83,14.57,32.52,32.52,0,0,0,6.62-29,14.82,14.82,0,0,0-18.45,14.45Z" transform="translate(-41 -12)"/></g><path class="cls-18" d="M183.64,47.17a.64.64,0,0,1-.64-.64V39.62a.64.64,0,0,1,.64-.64.64.64,0,0,1,.64.64v6.91A.64.64,0,0,1,183.64,47.17Z" transform="translate(-41 -12)"/><path class="cls-19" d="M187.68,39a4,4,0,0,1-8.08,0c0-2.23,1.81-9.09,4-9.09S187.68,36.8,187.68,39Z" transform="translate(-41 -12)"/><path class="cls-20" d="M183.64,29.94a2.14,2.14,0,0,0-1.58,1.12h0c2,0,3.7,6.28,3.7,8.32A3.69,3.69,0,0,1,182.83,43a3.59,3.59,0,0,0,.81.08,4,4,0,0,0,4-4C187.68,36.8,185.87,29.94,183.64,29.94Z" transform="translate(-41 -12)"/><g class="cls-21"><path class="cls-22" d="M151.16,30a2.43,2.43,0,0,1,2.43-2.43,2.25,2.25,0,0,1,.58.08,3.47,3.47,0,0,1,6,2.35Z" transform="translate(-41 -12)"/></g><g class="cls-21"><path class="cls-22" d="M150.86,20.25A2.17,2.17,0,0,1,153,18.08a2.25,2.25,0,0,1,.52.07,3.09,3.09,0,0,1,5.37,2.1Z" transform="translate(-41 -12)"/></g><g class="cls-21"><path class="cls-22" d="M180.78,22.74A1.74,1.74,0,0,0,179,21a1.42,1.42,0,0,0-.42.06,2.46,2.46,0,0,0-1.82-.81,2.49,2.49,0,0,0-2.49,2.49Z" transform="translate(-41 -12)"/></g><path class="cls-23" d="M163.5,43.48c-.85,0-1-.84-1.08-1-.94-1.91-2.07-1-3.92-1-1.46,0-1.75-2.11-2.56-2s-2.12,1.44-3.25,1c-1.61-.61-1.66-1.53-3.24-2-1.39-.45-2.56-.13-3.24-1-1.32-1.73-2.26.16-4.32-1s-2.75,1-4.33,1-1.08-2-3.24-2c-1.22,0-1.94,1.49-3.49,1.91A32,32,0,0,0,130,44.5a31.45,31.45,0,0,0,.23,3.78,5.61,5.61,0,0,0,1.57,1.1c1.94.83,42.51,1.55,42.51,1.55V47.55c-3,0-3-2-5.41-2C165.63,45.52,165.93,43.48,163.5,43.48Z" transform="translate(-41 -12)"/><path class="cls-24" d="M143.58,67l30.09-16.11-.76-1.65c-7.29,0-19.93-7.4-42.91-4.78a32.38,32.38,0,0,0,7.86,21.18Z" transform="translate(-41 -12)"/><path class="cls-25" d="M172.91,49.28c-6.68,0-17.87-6.22-37.41-5.23,17.37,0,28,7.79,33.47,7.79l1.53-.57L173,49.38Z" transform="translate(-41 -12)"/><path class="cls-22" d="M152.88,27.19a2.89,2.89,0,0,0-.83.14,4.64,4.64,0,0,0-7.62,0,2.83,2.83,0,0,0-.83-.14A2.79,2.79,0,0,0,140.81,30h14.86A2.79,2.79,0,0,0,152.88,27.19Z" transform="translate(-41 -12)"/><path class="cls-22" d="M174.69,24.61a3,3,0,0,0-.91.15,5.08,5.08,0,0,0-8.34,0,3,3,0,0,0-4,2.9h16.25A3,3,0,0,0,174.69,24.61Z" transform="translate(-41 -12)"/><path class="cls-22" d="M153.45,22.58a3.26,3.26,0,0,1,3.26-3.26,2.88,2.88,0,0,1,.78.11,4.64,4.64,0,0,1,8.06,3.15Z" transform="translate(-41 -12)"/><path class="cls-20" d="M132.88,57.87A32.5,32.5,0,0,0,195,44.5c0-.34,0-.67,0-1-20.09.09-29.21,14.21-62.09,14.21Z" transform="translate(-41 -12)"/><path class="cls-18" d="M174.31,51.27a.73.73,0,0,1-.73-.73V42.71a.73.73,0,1,1,1.45,0v7.83A.73.73,0,0,1,174.31,51.27Z" transform="translate(-41 -12)"/><path class="cls-19" d="M178.89,42a4.59,4.59,0,0,1-9.17,0c0-2.53,2.05-10.32,4.59-10.32S178.89,39.51,178.89,42Z" transform="translate(-41 -12)"/><path class="cls-20" d="M174.31,31.72a2.46,2.46,0,0,0-1.8,1.27h0c2.31,0,4.19,7.12,4.19,9.44a4.18,4.18,0,0,1-3.32,4.1,4.63,4.63,0,0,0,.92.09A4.58,4.58,0,0,0,178.89,42C178.89,39.51,176.84,31.72,174.31,31.72Z" transform="translate(-41 -12)"/><path class="cls-19" d="M194.92,46.63c-14.28.07-34.76,19.83-54.75,21.45a32.47,32.47,0,0,0,54.75-21.45Z" transform="translate(-41 -12)"/><circle class="cls-25" cx="113.82" cy="56.96" r="0.85"/><circle class="cls-24" cx="117.78" cy="47.01" r="0.85"/><circle class="cls-24" cx="140.68" cy="35.89" r="0.85"/><circle class="cls-20" cx="126.55" cy="58.31" r="0.85"/><circle class="cls-25" cx="131.11" cy="53.07" r="0.85"/><circle class="cls-20" cx="121.5" cy="54.27" r="0.85"/><circle class="cls-20" cx="107.28" cy="57.81" r="0.85"/><circle class="cls-25" cx="108.13" cy="50.66" r="0.85"/><circle class="cls-25" cx="122.35" cy="43.84" r="0.85"/><circle class="cls-24" cx="101.18" cy="50.24" r="0.85"/><circle class="cls-25" cx="137.05" cy="49.39" r="0.85"/><circle class="cls-25" cx="145.24" cy="47.01" r="0.85"/><circle class="cls-20" cx="129.57" cy="48.54" r="0.85"/><circle class="cls-20" cx="137.05" cy="55.04" r="0.85"/><circle class="cls-20" cx="139.61" cy="44.69" r="0.85"/><circle class="cls-20" cx="145.24" cy="39.77" r="0.85"/><circle class="cls-26" cx="215" cy="53.42" r="31.58"/><path class="cls-27" d="M284.83,47.18H270.17a22.72,22.72,0,0,1,3.43,3.22h11.23a1.62,1.62,0,1,0,0-3.22Z" transform="translate(-41 -12)"/><path class="cls-28" d="M279.89,53.56h-4a22.15,22.15,0,0,1,1.62,3.23h2.37a1.62,1.62,0,1,0,0-3.23Z" transform="translate(-41 -12)"/><path class="cls-28" d="M277.68,81.4h-1.24a2.85,2.85,0,0,1-3.92.19,22.73,22.73,0,0,1-3.73,3h8.89a1.62,1.62,0,1,0,0-3.23Z" transform="translate(-41 -12)"/><path class="cls-28" d="M243.29,46.54H230.4a1.65,1.65,0,1,0,0,3.28h3.33a1.65,1.65,0,1,1,0,3.29h-8.9a1.65,1.65,0,1,0,0,3.29h10.38A23,23,0,0,1,243.29,46.54Z" transform="translate(-41 -12)"/><path class="cls-27" d="M236.66,77.27h-4.92a1.61,1.61,0,1,0,0,3.21H235a1.62,1.62,0,1,1,0,3.22h-8.71a1.62,1.62,0,1,0,0,3.22h22A23,23,0,0,1,236.66,77.27Z" transform="translate(-41 -12)"/><path class="cls-29" d="M261.28,43.05l-4.83,8.41a.52.52,0,0,1-.9,0l-4.77-8.3a22.92,22.92,0,1,0,21.74,38.43,2.86,2.86,0,0,1,1.86-5,2.81,2.81,0,0,1,1.64.52,22.92,22.92,0,0,0-14.74-34Z" transform="translate(-41 -12)"/><path class="cls-30" d="M237.45,65.42a22.92,22.92,0,0,1,14-21.11l-.66-1.15a22.93,22.93,0,0,0,5.5,45.18c.69,0,1.37,0,2.05-.09A22.93,22.93,0,0,1,237.45,65.42Z" transform="translate(-41 -12)"/><path class="cls-31" d="M261.79,42.17,260.16,45a14.49,14.49,0,0,1,3.49,4.65c.35.7.68,1.44,1,2.21a2.77,2.77,0,0,1,1.63-.51h.25a26.62,26.62,0,0,0-1.14-2.59,17.78,17.78,0,0,0-3.14-4.49A22,22,0,0,1,272.83,51a29.72,29.72,0,0,1-4.33,1.42,2.83,2.83,0,0,1,.62,1.78v0a30.3,30.3,0,0,0,5-1.69,21.9,21.9,0,0,1,4.14,11.88h-9.35a43.31,43.31,0,0,0-.88-8,2.82,2.82,0,0,1-1.73.59h-.12a42.33,42.33,0,0,1,.8,7.38H257V55.74a58.86,58.86,0,0,0,6.64-.45,2.77,2.77,0,0,1-.21-1.08,2.71,2.71,0,0,1,.13-.86,57.23,57.23,0,0,1-6.56.46V50.55l-.52.91a.52.52,0,0,1-.9,0l-.52-.91V53.8a55.78,55.78,0,0,1-7.55-.67,26.9,26.9,0,0,1,1.44-3.48A15.17,15.17,0,0,1,252,45.33l-1.75-3a23.89,23.89,0,1,0,23.09,39.8,2.76,2.76,0,0,1-1.47-1.26,21.87,21.87,0,0,1-9.67,5.72,17.6,17.6,0,0,0,3.14-4.49,28.2,28.2,0,0,0,1.64-4,34.55,34.55,0,0,1,4.51,1.25,2.82,2.82,0,0,1,.72-1.8,37.34,37.34,0,0,0-4.69-1.31,42,42,0,0,0,1.32-9.83h9.35a21.92,21.92,0,0,1-3.08,10.28,2.9,2.9,0,0,1,1.58,1.11,23.88,23.88,0,0,0-14.93-35.6Zm-11.45,2.11a17.78,17.78,0,0,0-3.14,4.49,27.85,27.85,0,0,0-1.64,4A31.25,31.25,0,0,1,239.74,51,22,22,0,0,1,250.34,44.28Zm-10.6,35.55a31.25,31.25,0,0,1,5.82-1.76,28.2,28.2,0,0,0,1.64,4,17.6,17.6,0,0,0,3.14,4.49A21.91,21.91,0,0,1,239.74,79.83ZM255,87.22c-2.26-.57-4.4-2.66-6.11-6a27.5,27.5,0,0,1-1.44-3.48A52.73,52.73,0,0,1,255,77Zm0-22.77h-7.78a2.77,2.77,0,0,1,.17,1,2.83,2.83,0,0,1-.17,1H255v8.73a54.66,54.66,0,0,0-8.11.74A39,39,0,0,1,245.7,68a2.85,2.85,0,0,1-1.93.13,41.44,41.44,0,0,0,1.25,8,33,33,0,0,0-6.53,2.05,21.87,21.87,0,0,1-4.14-11.88h7.52a2.61,2.61,0,0,1-.18-1,2.77,2.77,0,0,1,.17-1h-7.51a21.9,21.9,0,0,1,4.14-11.88A32.36,32.36,0,0,0,245,54.63a41.23,41.23,0,0,0-1.25,8,2.9,2.9,0,0,1,.79-.11,2.74,2.74,0,0,1,1.14.24,38.68,38.68,0,0,1,1.22-7.8,56,56,0,0,0,8.11.74v8.72Zm8.62,16.74c-1.86,3.65-4.21,5.8-6.68,6.13V77a54.75,54.75,0,0,1,8.12.68A27.5,27.5,0,0,1,263.65,81.19Zm2-5.34A55.54,55.54,0,0,0,257,75.1V66.38h10A40.4,40.4,0,0,1,265.65,75.85Z" transform="translate(-41 -12)"/><circle class="cls-32" cx="203.56" cy="53.41" r="2.99"/><circle class="cls-32" cx="225.26" cy="42.21" r="2.99"/><circle class="cls-32" cx="233.38" cy="67.42" r="2.99"/><path class="cls-33" d="M243.35,65.41a3,3,0,0,1,2.1-2.86,3.24,3.24,0,0,0-.89-.13,3,3,0,1,0,0,6,2.91,2.91,0,0,0,.89-.14A3,3,0,0,1,243.35,65.41Z" transform="translate(-41 -12)"/><path class="cls-33" d="M265.05,54.21a3,3,0,0,1,2.1-2.86,2.9,2.9,0,0,0-.89-.13,3,3,0,0,0,0,6,2.91,2.91,0,0,0,.89-.14A3,3,0,0,1,265.05,54.21Z" transform="translate(-41 -12)"/><path class="cls-33" d="M273.17,79.42a3,3,0,0,1,2.1-2.86,2.9,2.9,0,0,0-.89-.13,3,3,0,0,0,0,6,2.91,2.91,0,0,0,.89-.14A3,3,0,0,1,273.17,79.42Z" transform="translate(-41 -12)"/><path class="cls-32" d="M256,51.85a.66.66,0,0,1-.56-.33L249.93,42a7.15,7.15,0,1,1,12.14,0l-5.51,9.57A.66.66,0,0,1,256,51.85Z" transform="translate(-41 -12)"/><path class="cls-33" d="M251.85,41.32a7.15,7.15,0,0,1,2.91-10.21A7.17,7.17,0,0,0,249.93,42l5.51,9.57a.64.64,0,0,0,1.12,0l.58-1Z" transform="translate(-41 -12)"/><circle class="cls-22" cx="215" cy="26.15" r="4.3"/><circle class="cls-34" cx="215" cy="26.15" r="2.61"/><path class="cls-35" d="M254.92,38.15a2.62,2.62,0,0,1,1.84-2.49,2.68,2.68,0,0,0-.76-.11,2.61,2.61,0,1,0,0,5.21,2.68,2.68,0,0,0,.76-.11A2.62,2.62,0,0,1,254.92,38.15Z" transform="translate(-41 -12)"/><path class="cls-27" d="M287.43,63.94H264.57a1.42,1.42,0,1,0,0,2.83h3.22a1.42,1.42,0,1,1,0,2.82H255.3a1.42,1.42,0,1,0,0,2.83h27.34a1.42,1.42,0,1,0,0-2.83h-2.87a1.42,1.42,0,1,1,0-2.82h7.66a1.42,1.42,0,1,0,0-2.83Z" transform="translate(-41 -12)"/></svg>